# Blender v3.0.0 OBJ File: 'Пушка 1.blend'
# www.blender.org
mtllib Cannon 1 Barrel.mtl
o Цилиндр.002_Цилиндр.004
v -1.275469 8.790393 -0.982448
v 2.863186 8.727424 -0.658496
v -1.275469 8.400215 -0.980746
v 2.863186 8.466010 -0.657356
v -1.275469 8.040390 -0.829859
v 2.863186 8.224933 -0.556264
v 2.863186 8.040894 -0.370611
v 2.863186 7.941907 -0.128660
v 2.863186 7.943049 0.132752
v 2.863186 8.044141 0.373829
v -1.275469 8.047647 0.833064
v 2.863186 8.229795 0.557869
v -1.275469 8.408775 0.980806
v 2.863186 8.471745 0.656853
v -1.275469 8.798950 0.979103
v 2.863186 8.733156 0.655712
v -1.275469 9.158774 0.828216
v 2.863186 8.974232 0.554621
v -1.275469 9.433468 0.551116
v 2.863186 9.158272 0.368968
v -1.275469 9.581210 0.189988
v 2.863186 9.257258 0.127018
v -1.275469 9.579507 -0.200189
v 2.863186 9.256116 -0.134395
v -1.275469 9.428619 -0.560014
v 2.863186 9.155024 -0.375472
v -1.275469 9.151519 -0.834707
v 2.863186 8.969372 -0.559512
v -1.833728 8.691904 -0.475764
v -1.833728 8.503122 -0.474941
v -1.833728 8.329029 -0.401936
v -1.833728 8.196123 -0.267866
v -1.833728 8.124640 -0.093141
v -1.833728 8.125465 0.095639
v -1.833728 8.198469 0.269734
v -1.833728 8.332538 0.402639
v -1.833728 8.507265 0.474121
v -1.833728 8.696044 0.473297
v -1.833728 8.870136 0.400293
v -1.833728 9.003043 0.266223
v -1.833728 9.074525 0.091498
v -1.833728 9.073702 -0.097282
v -1.833728 9.000697 -0.271377
v -1.833728 8.866629 -0.404282
v 2.863186 8.425554 -0.856195
v 2.863186 8.766141 -0.857681
v 2.863186 8.111465 -0.724486
v 2.863186 8.117798 0.727075
v 2.863186 8.433027 0.856038
v 2.863186 8.773611 0.854552
v 2.863186 9.087700 0.722843
v 2.863186 9.327481 0.480963
v 2.863186 9.456444 0.165736
v 2.863186 9.454958 -0.174849
v 2.863186 9.323247 -0.488939
v 2.863186 9.081367 -0.728718
v 0.625172 8.446561 -0.752953
v 0.625172 8.746036 -0.754260
v 0.625172 8.170380 -0.637142
v 0.625172 7.959542 -0.424456
v 0.625172 7.846143 -0.147275
v 0.625172 7.847451 0.152202
v 0.625172 7.963263 0.428382
v 0.625172 8.175949 0.639220
v 0.625172 8.453131 0.752618
v 0.625172 8.752604 0.751310
v 0.625172 9.028785 0.635499
v 0.625172 9.239623 0.422812
v 0.625172 9.353021 0.145632
v 0.625172 9.351714 -0.153845
v 0.625172 9.235902 -0.430025
v 0.625172 9.023216 -0.640863
v 2.863186 7.871687 -0.482606
v -1.275469 7.765697 -0.552759
v -1.275469 7.617956 -0.191630
v 2.863186 7.742723 -0.167378
v -1.275469 7.619658 0.198546
v 2.863186 7.744210 0.173206
v -1.275469 7.770546 0.558371
v 2.863186 7.875919 0.487296
v 0.793859 7.617956 -0.191630
v 0.793859 7.619658 0.198546
v 0.793858 8.790393 -0.982448
v 0.793859 8.400215 -0.980746
v 0.793859 8.040390 -0.829859
v 0.793859 7.765697 -0.552759
v 0.793859 7.770546 0.558371
v 0.793859 8.047647 0.833064
v 0.793859 8.408775 0.980806
v 0.793859 8.798950 0.979103
v 0.793859 9.158774 0.828216
v 0.793859 9.433468 0.551116
v 0.793859 9.581210 0.189988
v 0.793859 9.579507 -0.200189
v 0.793859 9.428619 -0.560014
v 0.793859 9.151519 -0.834707
vt 0.805082 0.623220
vt 0.805082 0.630253
vt 0.803323 0.630253
vt 0.803323 0.623220
vt 0.801565 0.630253
vt 0.801565 0.623220
vt 0.799807 0.630253
vt 0.799807 0.623220
vt 0.794532 0.623220
vt 0.794532 0.630253
vt 0.792774 0.630253
vt 0.792774 0.623220
vt 0.791016 0.630253
vt 0.791016 0.623220
vt 0.789257 0.630253
vt 0.789257 0.623220
vt 0.787499 0.630253
vt 0.787499 0.623220
vt 0.785741 0.630253
vt 0.785741 0.623220
vt 0.783983 0.630253
vt 0.783983 0.623220
vt 0.782224 0.630253
vt 0.782224 0.623220
vt 0.779195 0.607171
vt 0.780318 0.605490
vt 0.780318 0.605490
vt 0.779195 0.607171
vt 0.780466 0.630253
vt 0.780466 0.623220
vt 0.778708 0.630253
vt 0.778708 0.623220
vt 0.795909 0.693359
vt 0.794278 0.693359
vt 0.794278 0.693359
vt 0.795909 0.693359
vt 0.791016 0.707212
vt 0.793327 0.706753
vt 0.795287 0.705443
vt 0.796596 0.703483
vt 0.797056 0.701172
vt 0.796596 0.698860
vt 0.795287 0.696901
vt 0.793327 0.695591
vt 0.791016 0.695131
vt 0.788704 0.695591
vt 0.786744 0.696901
vt 0.785435 0.698860
vt 0.784975 0.701172
vt 0.785435 0.703483
vt 0.786744 0.705443
vt 0.788704 0.706753
vt 0.787754 0.693359
vt 0.786123 0.693359
vt 0.786123 0.693359
vt 0.787754 0.693359
vt 0.779599 0.693359
vt 0.777968 0.693359
vt 0.777968 0.693359
vt 0.779599 0.693359
vt 0.799170 0.693359
vt 0.797540 0.693359
vt 0.797540 0.693359
vt 0.799170 0.693359
vt 0.791016 0.693359
vt 0.789385 0.693359
vt 0.789385 0.693359
vt 0.791016 0.693359
vt 0.782861 0.693359
vt 0.781230 0.693359
vt 0.781230 0.693359
vt 0.782861 0.693359
vt 0.802432 0.693359
vt 0.800801 0.693359
vt 0.800801 0.693359
vt 0.802432 0.693359
vt 0.792647 0.693359
vt 0.792647 0.693359
vt 0.784492 0.693359
vt 0.784492 0.693359
vt 0.804063 0.693359
vt 0.804063 0.693359
vt 0.783983 0.614337
vt 0.785966 0.613942
vt 0.786566 0.615392
vt 0.783983 0.615906
vt 0.787647 0.612819
vt 0.788757 0.613929
vt 0.788770 0.611138
vt 0.790220 0.611738
vt 0.789165 0.609154
vt 0.790734 0.609154
vt 0.788770 0.607171
vt 0.790220 0.606571
vt 0.787647 0.605490
vt 0.788757 0.604380
vt 0.785966 0.604367
vt 0.786566 0.602917
vt 0.783983 0.603972
vt 0.783983 0.602403
vt 0.781999 0.604367
vt 0.781399 0.602917
vt 0.779208 0.604380
vt 0.777745 0.606571
vt 0.778800 0.609154
vt 0.777231 0.609154
vt 0.779195 0.611138
vt 0.777745 0.611738
vt 0.780318 0.612819
vt 0.779208 0.613929
vt 0.781999 0.613942
vt 0.781399 0.615392
vt 0.802341 0.957365
vt 0.794922 0.958840
vt 0.787503 0.957365
vt 0.781213 0.953162
vt 0.777010 0.946872
vt 0.775535 0.939453
vt 0.777010 0.932034
vt 0.781213 0.925744
vt 0.787503 0.921542
vt 0.794922 0.920066
vt 0.802341 0.921542
vt 0.808631 0.925744
vt 0.812833 0.932034
vt 0.814309 0.939453
vt 0.812833 0.946872
vt 0.808631 0.953162
vt 0.788770 0.611138
vt 0.789165 0.609154
vt 0.778800 0.609154
vt 0.788770 0.607171
vt 0.779195 0.611138
vt 0.787647 0.605490
vt 0.780318 0.612819
vt 0.785966 0.604367
vt 0.781999 0.613942
vt 0.783983 0.603972
vt 0.783983 0.614337
vt 0.785966 0.613942
vt 0.781999 0.604367
vt 0.787647 0.612819
vt 0.776950 0.630253
vt 0.776950 0.623220
vt 0.794391 0.612671
vt 0.793255 0.611379
vt 0.791644 0.610284
vt 0.799807 0.616187
vt 0.798049 0.616187
vt 0.796290 0.616187
vt 0.794532 0.616187
vt 0.778708 0.616187
vt 0.776950 0.616187
vt 0.780466 0.616187
vt 0.782224 0.616187
vt 0.783983 0.616187
vt 0.785741 0.616187
vt 0.787499 0.616187
vt 0.789257 0.616187
vt 0.791016 0.616187
vt 0.792774 0.616187
vt 0.801565 0.616187
vt 0.803323 0.616187
vt 0.805082 0.616187
vn 0.0601 -0.0044 -0.9982
vn 0.0601 -0.3860 -0.9205
vn 0.0601 -0.7089 -0.7027
vn 0.0601 -0.7027 0.7089
vn 0.0601 -0.3780 0.9239
vn 0.0601 0.0044 0.9982
vn 0.0601 0.3860 0.9205
vn 0.0601 0.7089 0.7027
vn 0.0601 0.9239 0.3780
vn 0.0601 0.9982 -0.0044
vn -0.0427 -0.7095 -0.7034
vn 0.0601 0.9205 -0.3860
vn 0.0601 0.7027 -0.7089
vn -0.6718 -0.6831 0.2865
vn -1.0000 -0.0000 0.0000
vn -0.6718 0.5261 0.5215
vn -0.6718 0.2805 -0.6856
vn -0.6718 -0.6856 -0.2805
vn -0.6718 0.0032 0.7408
vn -0.6718 0.6831 -0.2865
vn -0.6718 -0.2865 -0.6831
vn -0.6718 -0.5215 0.5261
vn -0.6718 0.6856 0.2805
vn -0.6718 -0.7408 0.0032
vn -0.6718 0.2865 0.6831
vn -0.6718 0.5215 -0.5261
vn -0.6718 -0.5261 -0.5215
vn -0.6718 -0.2805 0.6856
vn -0.6718 -0.0032 -0.7408
vn -0.6718 0.7408 -0.0032
vn 1.0000 0.0000 0.0000
vn -0.0427 0.9247 0.3783
vn -0.0427 -0.9247 -0.3783
vn -0.0427 0.9991 -0.0044
vn -0.0427 -0.9991 0.0044
vn -0.0427 0.9214 -0.3864
vn -0.0427 -0.9214 0.3864
vn -0.0427 0.7034 -0.7095
vn -0.0427 -0.7034 0.7095
vn -0.0427 0.3783 -0.9247
vn -0.0427 0.0044 0.9991
vn -0.0427 -0.3783 0.9247
vn -0.0427 -0.0044 -0.9991
vn -0.0427 0.3864 0.9214
vn -0.0427 -0.3864 -0.9214
vn -0.0427 0.7095 0.7034
vn 0.0601 0.3780 -0.9239
vn 0.0601 -0.9982 0.0044
vn 0.0601 -0.9205 0.3860
vn 0.0601 -0.9239 -0.3780
vn 0.0000 -0.9255 -0.3786
vn 0.0000 -0.9222 0.3867
vn -0.0000 -1.0000 0.0044
vn 0.0000 0.3786 -0.9255
vn 0.0000 0.7040 -0.7102
vn 0.0000 0.9222 -0.3867
vn 0.0000 1.0000 -0.0044
vn 0.0000 0.9255 0.3787
vn 0.0000 0.7102 0.7040
vn 0.0000 0.3867 0.9222
vn 0.0000 0.0044 1.0000
vn 0.0000 -0.3786 0.9255
vn 0.0000 -0.7040 0.7102
vn 0.0000 -0.7102 -0.7040
vn 0.0000 -0.3867 -0.9222
vn 0.0000 -0.0044 -1.0000
usemtl Материал.004
s off
f 83/1/1 46/2/1 45/3/1 84/4/1
f 84/4/2 45/3/2 47/5/2 85/6/2
f 85/6/3 47/5/3 73/7/3 86/8/3
f 87/9/4 80/10/4 48/11/4 88/12/4
f 88/12/5 48/11/5 49/13/5 89/14/5
f 89/14/6 49/13/6 50/15/6 90/16/6
f 90/16/7 50/15/7 51/17/7 91/18/7
f 91/18/8 51/17/8 52/19/8 92/20/8
f 92/20/9 52/19/9 53/21/9 93/22/9
f 93/22/10 53/21/10 54/23/10 94/24/10
f 20/25/11 18/26/11 67/27/11 68/28/11
f 94/24/12 54/23/12 55/29/12 95/30/12
f 95/30/13 55/29/13 56/31/13 96/32/13
f 77/33/14 79/34/14 35/35/14 34/36/14
f 29/37/15 30/38/15 31/39/15 32/40/15 33/41/15 34/42/15 35/43/15 36/44/15 37/45/15 38/46/15 39/47/15 40/48/15 41/49/15 42/50/15 43/51/15 44/52/15
f 17/53/16 19/54/16 40/55/16 39/56/16
f 27/57/17 1/58/17 29/59/17 44/60/17
f 74/61/18 75/62/18 33/63/18 32/64/18
f 13/65/19 15/66/19 38/67/19 37/68/19
f 23/69/20 25/70/20 43/71/20 42/72/20
f 3/73/21 5/74/21 31/75/21 30/76/21
f 79/34/22 11/77/22 36/78/22 35/35/22
f 19/54/23 21/79/23 41/80/23 40/55/23
f 75/62/24 77/33/24 34/36/24 33/63/24
f 15/66/25 17/53/25 39/56/25 38/67/25
f 25/70/26 27/57/26 44/60/26 43/71/26
f 5/74/27 74/61/27 32/64/27 31/75/27
f 11/77/28 13/65/28 37/68/28 36/78/28
f 1/81/29 3/73/29 30/76/29 29/82/29
f 21/79/30 23/69/30 42/72/30 41/80/30
f 2/83/31 4/84/31 45/85/31 46/86/31
f 4/84/31 6/87/31 47/88/31 45/85/31
f 6/87/31 7/89/31 73/90/31 47/88/31
f 7/89/31 8/91/31 76/92/31 73/90/31
f 8/91/31 9/93/31 78/94/31 76/92/31
f 9/93/31 10/95/31 80/96/31 78/94/31
f 10/95/31 12/97/31 48/98/31 80/96/31
f 12/97/31 14/99/31 49/100/31 48/98/31
f 14/99/31 16/101/31 50/102/31 49/100/31
f 16/101/31 18/26/31 51/103/31 50/102/31
f 18/26/31 20/25/31 52/104/31 51/103/31
f 20/25/31 22/105/31 53/106/31 52/104/31
f 22/105/31 24/107/31 54/108/31 53/106/31
f 24/107/31 26/109/31 55/110/31 54/108/31
f 26/109/31 28/111/31 56/112/31 55/110/31
f 28/111/31 2/83/31 46/86/31 56/112/31
f 57/113/31 58/114/31 72/115/31 71/116/31 70/117/31 69/118/31 68/119/31 67/120/31 66/121/31 65/122/31 64/123/31 63/124/31 62/125/31 61/126/31 60/127/31 59/128/31
f 8/91/32 7/89/32 60/129/32 61/130/32
f 22/105/33 20/25/33 68/28/33 69/131/33
f 9/93/34 8/91/34 61/130/34 62/132/34
f 24/107/35 22/105/35 69/131/35 70/133/35
f 10/95/36 9/93/36 62/132/36 63/134/36
f 26/109/37 24/107/37 70/133/37 71/135/37
f 12/97/38 10/95/38 63/134/38 64/136/38
f 28/111/39 26/109/39 71/135/39 72/137/39
f 14/99/40 12/97/40 64/136/40 65/138/40
f 4/84/41 2/83/41 58/139/41 57/140/41
f 2/83/42 28/111/42 72/137/42 58/139/42
f 16/101/43 14/99/43 65/138/43 66/141/43
f 6/87/44 4/84/44 57/140/44 59/142/44
f 18/26/45 16/101/45 66/141/45 67/27/45
f 7/89/46 6/87/46 59/142/46 60/129/46
f 96/32/47 56/31/47 46/143/47 83/144/47
f 81/145/48 76/92/48 78/94/48 82/146/48
f 82/146/49 78/94/49 80/96/49 87/147/49
f 86/8/50 73/7/50 76/92/50 81/145/50
f 74/148/51 86/8/51 81/145/51 75/149/51
f 77/150/52 82/146/52 87/147/52 79/151/52
f 75/149/53 81/145/53 82/146/53 77/150/53
f 27/152/54 96/32/54 83/144/54 1/153/54
f 25/154/55 95/30/55 96/32/55 27/152/55
f 23/155/56 94/24/56 95/30/56 25/154/56
f 21/156/57 93/22/57 94/24/57 23/155/57
f 19/157/58 92/20/58 93/22/58 21/156/58
f 17/158/59 91/18/59 92/20/59 19/157/59
f 15/159/60 90/16/60 91/18/60 17/158/60
f 13/160/61 89/14/61 90/16/61 15/159/61
f 11/161/62 88/12/62 89/14/62 13/160/62
f 79/151/63 87/9/63 88/12/63 11/161/63
f 5/162/64 85/6/64 86/8/64 74/148/64
f 3/163/65 84/4/65 85/6/65 5/162/65
f 1/164/66 83/1/66 84/4/66 3/163/66
