# Blender v3.0.0 OBJ File: 'Ледянная башня 1.blend'
# www.blender.org
mtllib Ледяная башня 1 2.0.mtl
o Cube
v 1.880363 2.027506 -1.880363
v 1.000000 0.019042 -1.000000
v 1.880363 2.027506 1.880363
v 1.000000 0.019042 1.000000
v -1.880363 2.027506 -1.880363
v -1.000000 0.019042 -1.000000
v -1.880363 2.027506 1.880363
v -1.000000 0.019042 1.000000
v 1.880363 2.186176 1.880363
v -1.880363 2.186176 1.880363
v 1.880363 2.186176 -1.880363
v -1.880363 2.186176 -1.880363
v 0.655235 2.194641 0.655235
v -0.655235 2.194641 0.655235
v 0.655235 2.194641 -0.655235
v -0.655235 2.194641 -0.655235
v 0.655235 3.845447 0.655235
v -0.655235 3.845447 0.655235
v 0.655235 3.845447 -0.655235
v -0.655235 3.845447 -0.655235
v 0.003170 4.893695 0.003170
v -0.003170 4.893695 0.003170
v 0.003170 4.893695 -0.003170
v -0.003170 4.893695 -0.003170
vt 0.783970 0.526925
vt 0.783970 0.512834
vt 0.783970 0.512834
vt 0.783970 0.526925
vt 0.792969 0.712014
vt 0.803811 0.712014
vt 0.803811 0.722856
vt 0.792969 0.722856
vt 0.792969 0.679488
vt 0.803811 0.679488
vt 0.803811 0.690330
vt 0.792969 0.690330
vt 0.782127 0.701172
vt 0.792969 0.701172
vt 0.782127 0.712014
vt 0.803811 0.701172
vt 0.783970 0.541016
vt 0.798061 0.541016
vt 0.798061 0.555106
vt 0.783970 0.555106
vt 0.783970 0.555106
vt 0.783970 0.541016
vt 0.783970 0.569197
vt 0.783970 0.569197
vt 0.295918 0.047871
vt 0.295918 0.088848
vt 0.336895 0.088848
vt 0.336895 0.047871
vt 0.336895 0.047871
vt 0.336895 0.088848
vt 0.336895 0.088848
vt 0.336895 0.047871
vt 0.295918 0.047871
vt 0.295918 0.088848
vt 0.295918 0.047871
vt 0.295918 0.088848
vn -1.0000 0.0000 0.0000
vn 0.0000 -0.4015 0.9159
vn -0.9159 -0.4015 0.0000
vn 0.0000 -1.0000 0.0000
vn 0.9159 -0.4015 0.0000
vn 0.0000 -0.4015 -0.9159
vn 0.0000 1.0000 0.0000
vn 1.0000 0.0000 0.0000
vn 0.0000 0.0000 -1.0000
vn 0.0000 0.0000 1.0000
vn -0.8491 0.5282 0.0000
vn 0.0000 0.5282 0.8491
vn 0.0000 0.5282 -0.8491
vn 0.8491 0.5282 0.0000
usemtl Material
s off
f 5/1/1 7/2/1 10/3/1 12/4/1
f 4/5/2 3/6/2 7/7/2 8/8/2
f 8/9/3 7/10/3 5/11/3 6/12/3
f 6/13/4 2/14/4 4/5/4 8/15/4
f 2/14/5 1/16/5 3/6/5 4/5/5
f 6/12/6 5/11/6 1/16/6 2/14/6
f 11/17/7 12/18/7 10/19/7 9/20/7
f 3/21/8 1/22/8 11/17/8 9/20/8
f 1/22/9 5/1/9 12/4/9 11/17/9
f 7/23/10 3/21/10 9/20/10 10/24/10
f 15/25/4 13/26/4 14/27/4 16/28/4
f 20/29/11 18/30/11 22/31/11 24/32/11
f 13/26/8 15/25/8 19/33/8 17/34/8
f 16/28/1 14/27/1 18/30/1 20/29/1
f 14/27/10 13/26/10 17/34/10 18/30/10
f 15/25/9 16/28/9 20/29/9 19/33/9
f 23/35/7 24/32/7 22/31/7 21/36/7
f 18/30/12 17/34/12 21/36/12 22/31/12
f 19/33/13 20/29/13 24/32/13 23/35/13
f 17/34/14 19/33/14 23/35/14 21/36/14
