# Blender v3.0.0 OBJ File: 'Ледяная башня 4 Башня.blend'
# www.blender.org
mtllib Ледяная башня 4 Башня.mtl
o Cube
v 1.880363 2.027506 -1.880363
v 1.000000 0.019042 -1.000000
v 1.880363 2.027506 1.880363
v 1.000000 0.019042 1.000000
v -1.880363 2.027506 -1.880363
v -1.000000 0.019042 -1.000000
v -1.880363 2.027506 1.880363
v -1.000000 0.019042 1.000000
v 1.880363 2.186176 1.880363
v -1.880363 2.186176 1.880363
v 1.880363 2.186176 -1.880363
v -1.880363 2.186176 -1.880363
vt 0.785923 0.610909
vt 0.785923 0.596819
vt 0.785923 0.596819
vt 0.785923 0.610909
vt 0.792969 0.712014
vt 0.803811 0.712014
vt 0.803811 0.722856
vt 0.792969 0.722856
vt 0.792969 0.679488
vt 0.803811 0.679488
vt 0.803811 0.690330
vt 0.792969 0.690330
vt 0.782127 0.701172
vt 0.792969 0.701172
vt 0.782127 0.712014
vt 0.803811 0.701172
vt 0.785923 0.625000
vt 0.800014 0.625000
vt 0.800014 0.639091
vt 0.785923 0.639091
vt 0.785923 0.639091
vt 0.785923 0.625000
vt 0.785923 0.653181
vt 0.785923 0.653181
vn -1.0000 0.0000 0.0000
vn 0.0000 -0.4015 0.9159
vn -0.9159 -0.4015 0.0000
vn 0.0000 -1.0000 0.0000
vn 0.9159 -0.4015 0.0000
vn 0.0000 -0.4015 -0.9159
vn 0.0000 1.0000 0.0000
vn 1.0000 0.0000 0.0000
vn 0.0000 0.0000 -1.0000
vn 0.0000 0.0000 1.0000
usemtl Material
s off
f 5/1/1 7/2/1 10/3/1 12/4/1
f 4/5/2 3/6/2 7/7/2 8/8/2
f 8/9/3 7/10/3 5/11/3 6/12/3
f 6/13/4 2/14/4 4/5/4 8/15/4
f 2/14/5 1/16/5 3/6/5 4/5/5
f 6/12/6 5/11/6 1/16/6 2/14/6
f 11/17/7 12/18/7 10/19/7 9/20/7
f 3/21/8 1/22/8 11/17/8 9/20/8
f 1/22/9 5/1/9 12/4/9 11/17/9
f 7/23/10 3/21/10 9/20/10 10/24/10
o Cube.003
v -1.630347 2.186176 -1.630347
v -1.880363 2.186176 -1.630347
v -1.630347 2.186176 -1.880363
v -1.880363 2.186176 -1.880363
v -1.630347 5.571093 -1.630347
v -1.880363 5.571093 -1.630347
v -1.630347 5.571093 -1.880363
v -1.880363 5.571093 -1.880363
v -1.630347 5.642154 -1.630347
v -1.880363 5.642154 -1.630347
v -1.630347 5.642154 -1.880363
v -1.880363 5.642154 -1.880363
v -1.630347 5.931187 -1.630347
v -1.880363 5.931187 -1.630347
v -1.630347 5.931187 -1.880363
v -1.880363 5.931187 -1.880363
v -1.754469 6.264071 -1.754469
v -1.756241 6.264071 -1.754469
v -1.754469 6.264071 -1.756241
v -1.756241 6.264071 -1.756241
v 1.630347 2.186176 -1.630347
v 1.880363 2.186176 -1.630347
v 1.630347 2.186176 -1.880363
v 1.880363 2.186176 -1.880363
v 1.630347 5.571093 -1.630347
v 1.880363 5.571093 -1.630347
v 1.630347 5.571093 -1.880363
v 1.880363 5.571093 -1.880363
v 1.630347 5.642154 -1.630347
v 1.880363 5.642154 -1.630347
v 1.630347 5.642154 -1.880363
v 1.880363 5.642154 -1.880363
v 1.630347 5.931187 -1.630347
v 1.880363 5.931187 -1.630347
v 1.630347 5.931187 -1.880363
v 1.880363 5.931187 -1.880363
v 1.754469 6.264071 -1.754469
v 1.756241 6.264071 -1.754469
v 1.754469 6.264071 -1.756241
v 1.756241 6.264071 -1.756241
v -1.630347 2.186176 1.630347
v -1.880363 2.186176 1.630347
v -1.630347 2.186176 1.880363
v -1.880363 2.186176 1.880363
v -1.630347 5.571093 1.630347
v -1.880363 5.571093 1.630347
v -1.630347 5.571093 1.880363
v -1.880363 5.571093 1.880363
v -1.630347 5.642154 1.630347
v -1.880363 5.642154 1.630347
v -1.630347 5.642154 1.880363
v -1.880363 5.642154 1.880363
v -1.630347 5.931187 1.630347
v -1.880363 5.931187 1.630347
v -1.630347 5.931187 1.880363
v -1.880363 5.931187 1.880363
v -1.754469 6.264071 1.754469
v -1.756241 6.264071 1.754469
v -1.754469 6.264071 1.756241
v -1.756241 6.264071 1.756241
v 1.630347 2.186176 1.630347
v 1.880363 2.186176 1.630347
v 1.630347 2.186176 1.880363
v 1.880363 2.186176 1.880363
v 1.630347 5.571093 1.630347
v 1.880363 5.571093 1.630347
v 1.630347 5.571093 1.880363
v 1.880363 5.571093 1.880363
v 1.630347 5.642154 1.630347
v 1.880363 5.642154 1.630347
v 1.630347 5.642154 1.880363
v 1.880363 5.642154 1.880363
v 1.630347 5.931187 1.630347
v 1.880363 5.931187 1.630347
v 1.630347 5.931187 1.880363
v 1.880363 5.931187 1.880363
v 1.754469 6.264071 1.754469
v 1.756241 6.264071 1.754469
v 1.754469 6.264071 1.756241
v 1.756241 6.264071 1.756241
vt 0.785923 0.683594
vt 0.785923 0.697684
vt 0.800014 0.697684
vt 0.800014 0.683594
vt 0.782017 0.626953
vt 0.796108 0.626953
vt 0.796108 0.626953
vt 0.782017 0.626953
vt 0.800014 0.697684
vt 0.800014 0.683594
vt 0.785923 0.697684
vt 0.785923 0.683594
vt 0.235142 0.056641
vt 0.249233 0.056641
vt 0.249233 0.056641
vt 0.235142 0.056641
vt 0.782017 0.641044
vt 0.782017 0.641044
vt 0.796108 0.641044
vt 0.796108 0.641044
vt 0.249233 0.070731
vt 0.249233 0.070731
vt 0.249233 0.056641
vt 0.235142 0.070731
vt 0.235142 0.070731
vt 0.249233 0.070731
vt 0.235142 0.056641
vt 0.235142 0.070731
vt 0.785923 0.683594
vt 0.800014 0.683594
vt 0.800014 0.697684
vt 0.785923 0.697684
vt 0.782017 0.626953
vt 0.782017 0.626953
vt 0.796108 0.626953
vt 0.796108 0.626953
vt 0.800014 0.683594
vt 0.800014 0.697684
vt 0.785923 0.697684
vt 0.785923 0.683594
vt 0.235142 0.056641
vt 0.235142 0.056641
vt 0.249233 0.056641
vt 0.249233 0.056641
vt 0.782017 0.641044
vt 0.782017 0.641044
vt 0.796108 0.641044
vt 0.796108 0.641044
vt 0.249233 0.056641
vt 0.249233 0.070731
vt 0.249233 0.070731
vt 0.235142 0.070731
vt 0.235142 0.070731
vt 0.249233 0.070731
vt 0.235142 0.056641
vt 0.235142 0.070731
vt 0.785923 0.683594
vt 0.800014 0.683594
vt 0.800014 0.697684
vt 0.785923 0.697684
vt 0.782017 0.626953
vt 0.782017 0.626953
vt 0.796108 0.626953
vt 0.796108 0.626953
vt 0.800014 0.683594
vt 0.800014 0.697684
vt 0.785923 0.697684
vt 0.785923 0.683594
vt 0.235142 0.056641
vt 0.235142 0.056641
vt 0.249233 0.056641
vt 0.249233 0.056641
vt 0.782017 0.641044
vt 0.782017 0.641044
vt 0.796108 0.641044
vt 0.796108 0.641044
vt 0.249233 0.056641
vt 0.249233 0.070731
vt 0.249233 0.070731
vt 0.235142 0.070731
vt 0.235142 0.070731
vt 0.249233 0.070731
vt 0.235142 0.056641
vt 0.235142 0.070731
vt 0.785923 0.683594
vt 0.785923 0.697684
vt 0.800014 0.697684
vt 0.800014 0.683594
vt 0.782017 0.626953
vt 0.796108 0.626953
vt 0.796108 0.626953
vt 0.782017 0.626953
vt 0.800014 0.697684
vt 0.800014 0.683594
vt 0.785923 0.697684
vt 0.785923 0.683594
vt 0.235142 0.056641
vt 0.249233 0.056641
vt 0.249233 0.056641
vt 0.235142 0.056641
vt 0.782017 0.641044
vt 0.782017 0.641044
vt 0.796108 0.641044
vt 0.796108 0.641044
vt 0.249233 0.070731
vt 0.249233 0.070731
vt 0.249233 0.056641
vt 0.235142 0.070731
vt 0.235142 0.070731
vt 0.249233 0.070731
vt 0.235142 0.056641
vt 0.235142 0.070731
vn 0.0000 -1.0000 0.0000
vn 0.0000 0.0000 -1.0000
vn -1.0000 0.0000 0.0000
vn 0.0000 0.0000 1.0000
vn 1.0000 0.0000 0.0000
vn -0.9370 0.3494 0.0000
vn 0.0000 1.0000 0.0000
vn 0.0000 0.3494 0.9370
vn 0.0000 0.3494 -0.9370
vn 0.9370 0.3494 0.0000
usemtl Material
s off
f 15/25/11 13/26/11 14/27/11 16/28/11
f 19/29/12 20/30/12 24/31/12 23/32/12
f 16/28/13 14/27/13 18/33/13 20/34/13
f 14/27/14 13/26/14 17/35/14 18/33/14
f 15/25/12 16/28/12 20/34/12 19/36/12
f 13/26/15 15/25/15 19/36/15 17/35/15
f 23/37/12 24/38/12 28/39/12 27/40/12
f 17/41/15 19/29/15 23/32/15 21/42/15
f 20/30/13 18/43/13 22/44/13 24/31/13
f 18/43/14 17/41/14 21/42/14 22/44/14
f 28/39/16 26/45/16 30/46/16 32/47/16
f 21/48/15 23/37/15 27/40/15 25/49/15
f 24/38/13 22/50/13 26/45/13 28/39/13
f 22/50/14 21/48/14 25/49/14 26/45/14
f 31/51/17 32/47/17 30/46/17 29/52/17
f 26/45/18 25/49/18 29/52/18 30/46/18
f 27/40/19 28/39/19 32/47/19 31/51/19
f 25/49/20 27/40/20 31/51/20 29/52/20
f 35/53/11 36/54/11 34/55/11 33/56/11
f 39/57/12 43/58/12 44/59/12 40/60/12
f 36/54/15 40/61/15 38/62/15 34/55/15
f 34/55/14 38/62/14 37/63/14 33/56/14
f 35/53/12 39/64/12 40/61/12 36/54/12
f 33/56/13 37/63/13 39/64/13 35/53/13
f 43/65/12 47/66/12 48/67/12 44/68/12
f 37/69/13 41/70/13 43/58/13 39/57/13
f 40/60/15 44/59/15 42/71/15 38/72/15
f 38/72/14 42/71/14 41/70/14 37/69/14
f 48/67/20 52/73/20 50/74/20 46/75/20
f 41/76/13 45/77/13 47/66/13 43/65/13
f 44/68/15 48/67/15 46/75/15 42/78/15
f 42/78/14 46/75/14 45/77/14 41/76/14
f 51/79/17 49/80/17 50/74/17 52/73/17
f 46/75/18 50/74/18 49/80/18 45/77/18
f 47/66/19 51/79/19 52/73/19 48/67/19
f 45/77/16 49/80/16 51/79/16 47/66/16
f 55/81/11 56/82/11 54/83/11 53/84/11
f 59/85/14 63/86/14 64/87/14 60/88/14
f 56/82/13 60/89/13 58/90/13 54/83/13
f 54/83/12 58/90/12 57/91/12 53/84/12
f 55/81/14 59/92/14 60/89/14 56/82/14
f 53/84/15 57/91/15 59/92/15 55/81/15
f 63/93/14 67/94/14 68/95/14 64/96/14
f 57/97/15 61/98/15 63/86/15 59/85/15
f 60/88/13 64/87/13 62/99/13 58/100/13
f 58/100/12 62/99/12 61/98/12 57/97/12
f 68/95/16 72/101/16 70/102/16 66/103/16
f 61/104/15 65/105/15 67/94/15 63/93/15
f 64/96/13 68/95/13 66/103/13 62/106/13
f 62/106/12 66/103/12 65/105/12 61/104/12
f 71/107/17 69/108/17 70/102/17 72/101/17
f 66/103/19 70/102/19 69/108/19 65/105/19
f 67/94/18 71/107/18 72/101/18 68/95/18
f 65/105/20 69/108/20 71/107/20 67/94/20
f 75/109/11 73/110/11 74/111/11 76/112/11
f 79/113/14 80/114/14 84/115/14 83/116/14
f 76/112/15 74/111/15 78/117/15 80/118/15
f 74/111/12 73/110/12 77/119/12 78/117/12
f 75/109/14 76/112/14 80/118/14 79/120/14
f 73/110/13 75/109/13 79/120/13 77/119/13
f 83/121/14 84/122/14 88/123/14 87/124/14
f 77/125/13 79/113/13 83/116/13 81/126/13
f 80/114/15 78/127/15 82/128/15 84/115/15
f 78/127/12 77/125/12 81/126/12 82/128/12
f 88/123/20 86/129/20 90/130/20 92/131/20
f 81/132/13 83/121/13 87/124/13 85/133/13
f 84/122/15 82/134/15 86/129/15 88/123/15
f 82/134/12 81/132/12 85/133/12 86/129/12
f 91/135/17 92/131/17 90/130/17 89/136/17
f 86/129/19 85/133/19 89/136/19 90/130/19
f 87/124/18 88/123/18 92/131/18 91/135/18
f 85/133/16 87/124/16 91/135/16 89/136/16
