# Blender v3.0.0 OBJ File: 'Ледянная башня 2.blend'
# www.blender.org
mtllib Ледяная башня 2.mtl
o Cube
v 1.880363 2.027506 -1.880363
v 1.000000 0.019042 -1.000000
v 1.880363 2.027506 1.880363
v 1.000000 0.019042 1.000000
v -1.880363 2.027506 -1.880363
v -1.000000 0.019042 -1.000000
v -1.880363 2.027506 1.880363
v -1.000000 0.019042 1.000000
v 1.880363 2.186176 1.880363
v -1.880363 2.186176 1.880363
v 1.880363 2.186176 -1.880363
v -1.880363 2.186176 -1.880363
v 0.655235 4.759819 0.655235
v -0.655235 4.759819 0.655235
v 0.655235 4.759819 -0.655235
v -0.655235 4.759819 -0.655235
v 0.003170 5.808067 0.003170
v -0.003170 5.808067 0.003170
v 0.003170 5.808067 -0.003170
v -0.003170 5.808067 -0.003170
v 0.655235 2.186176 0.655235
v -0.655235 2.186176 0.655235
v 0.655235 2.186176 -0.655235
v -0.655235 2.186176 -0.655235
v 0.655235 3.582081 0.655235
v -0.655235 3.582081 0.655235
v 0.655235 3.582081 -0.655235
v -0.655235 3.582081 -0.655235
v 0.655235 3.363914 0.655235
v -0.655235 3.363914 0.655235
v 0.655235 3.363914 -0.655235
v -0.655235 3.363914 -0.655235
v 0.715920 3.592183 0.715920
v -0.715920 3.592183 0.715920
v 0.715920 3.592183 -0.715920
v -0.715920 3.592183 -0.715920
v 0.715920 3.353812 0.715920
v -0.715920 3.353812 0.715920
v 0.715920 3.353812 -0.715920
v -0.715920 3.353812 -0.715920
vt 0.785923 0.610909
vt 0.785923 0.596819
vt 0.785923 0.596819
vt 0.785923 0.610909
vt 0.792969 0.712014
vt 0.803811 0.712014
vt 0.803811 0.722856
vt 0.792969 0.722856
vt 0.792969 0.679488
vt 0.803811 0.679488
vt 0.803811 0.690330
vt 0.792969 0.690330
vt 0.782127 0.701172
vt 0.792969 0.701172
vt 0.782127 0.712014
vt 0.803811 0.701172
vt 0.785923 0.625000
vt 0.800014 0.625000
vt 0.800014 0.639091
vt 0.785923 0.639091
vt 0.785923 0.639091
vt 0.785923 0.625000
vt 0.785923 0.653181
vt 0.785923 0.653181
vt 0.336895 0.088848
vt 0.336895 0.047871
vt 0.336895 0.047871
vt 0.336895 0.088848
vt 0.336895 0.088848
vt 0.336895 0.047871
vt 0.295918 0.047871
vt 0.295918 0.088848
vt 0.295918 0.088848
vt 0.295918 0.047871
vt 0.295918 0.088848
vt 0.295918 0.047871
vt 0.811504 0.719707
vt 0.811504 0.719707
vt 0.811504 0.678730
vt 0.811504 0.678730
vt 0.770527 0.719707
vt 0.770527 0.719707
vt 0.770527 0.678730
vt 0.770527 0.678730
vt 0.811504 0.719707
vt 0.811504 0.678730
vt 0.811504 0.678730
vt 0.811504 0.719707
vt 0.770527 0.719707
vt 0.770527 0.719707
vt 0.770527 0.678730
vt 0.770527 0.678730
vn -1.0000 0.0000 0.0000
vn 0.0000 -0.4015 0.9159
vn -0.9159 -0.4015 0.0000
vn 0.0000 -1.0000 0.0000
vn 0.9159 -0.4015 0.0000
vn 0.0000 -0.4015 -0.9159
vn 0.0000 1.0000 0.0000
vn 1.0000 0.0000 0.0000
vn 0.0000 0.0000 -1.0000
vn 0.0000 0.0000 1.0000
vn -0.8491 0.5282 0.0000
vn 0.0000 0.5282 0.8491
vn 0.0000 0.5282 -0.8491
vn 0.8491 0.5282 0.0000
vn 0.0000 -0.9864 0.1642
vn -0.1642 -0.9864 0.0000
vn 0.0000 0.9864 0.1642
vn -0.1642 0.9864 0.0000
vn 0.1642 -0.9864 0.0000
vn 0.0000 -0.9864 -0.1642
vn 0.1642 0.9864 0.0000
vn 0.0000 0.9864 -0.1642
usemtl Material
s off
f 5/1/1 7/2/1 10/3/1 12/4/1
f 4/5/2 3/6/2 7/7/2 8/8/2
f 8/9/3 7/10/3 5/11/3 6/12/3
f 6/13/4 2/14/4 4/5/4 8/15/4
f 2/14/5 1/16/5 3/6/5 4/5/5
f 6/12/6 5/11/6 1/16/6 2/14/6
f 11/17/7 12/18/7 10/19/7 9/20/7
f 3/21/8 1/22/8 11/17/8 9/20/8
f 1/22/9 5/1/9 12/4/9 11/17/9
f 7/23/10 3/21/10 9/20/10 10/24/10
f 14/25/1 16/26/1 24/27/1 22/28/1
f 16/26/11 14/25/11 18/29/11 20/30/11
f 19/31/7 20/30/7 18/29/7 17/32/7
f 14/25/12 13/33/12 17/32/12 18/29/12
f 15/34/13 16/26/13 20/30/13 19/31/13
f 13/33/14 15/34/14 19/31/14 17/32/14
f 21/35/4 22/28/4 24/27/4 23/36/4
f 13/33/10 14/25/10 22/28/10 21/35/10
f 16/26/9 15/34/9 23/36/9 24/27/9
f 15/34/8 13/33/8 21/35/8 23/36/8
f 26/37/8 30/38/8 32/39/8 28/40/8
f 25/41/9 29/42/9 30/38/9 26/37/9
f 28/40/10 32/39/10 31/43/10 27/44/10
f 27/44/1 31/43/1 29/42/1 25/41/1
f 34/45/1 36/46/1 40/47/1 38/48/1
f 33/49/10 34/45/10 38/48/10 37/50/10
f 36/46/9 35/51/9 39/52/9 40/47/9
f 35/51/8 33/49/8 37/50/8 39/52/8
f 31/43/15 32/39/15 40/47/15 39/52/15
f 29/42/16 31/43/16 39/52/16 37/50/16
f 28/40/17 27/44/17 35/51/17 36/46/17
f 27/44/18 25/41/18 33/49/18 35/51/18
f 32/39/19 30/38/19 38/48/19 40/47/19
f 30/38/20 29/42/20 37/50/20 38/48/20
f 26/37/21 28/40/21 36/46/21 34/45/21
f 25/41/22 26/37/22 34/45/22 33/49/22
o Cube.001
v 0.127638 3.592183 0.715920
v -0.127638 3.592183 0.715920
v 0.127638 3.353812 0.715920
v -0.127638 3.353812 0.715920
v 0.127638 2.186176 1.880363
v -0.127638 2.186176 1.880363
v 0.127638 2.186176 1.641991
v -0.127638 2.186176 1.641991
v 0.127638 3.592183 -0.715920
v -0.127638 3.592183 -0.715920
v 0.127638 3.353812 -0.715920
v -0.127638 3.353812 -0.715920
v 0.127638 2.186176 -1.880363
v -0.127638 2.186176 -1.880363
v 0.127638 2.186176 -1.641991
v -0.127638 2.186176 -1.641991
vt 0.774433 0.707989
vt 0.774433 0.707989
vt 0.815410 0.707989
vt 0.815410 0.707989
vt 0.774433 0.707989
vt 0.815410 0.707989
vt 0.815410 0.707989
vt 0.774433 0.707989
vt 0.774433 0.707989
vt 0.815410 0.707989
vt 0.815410 0.707989
vt 0.774433 0.707989
vt 0.774433 0.707989
vt 0.774433 0.707989
vt 0.815410 0.707989
vt 0.815410 0.707989
vn 0.0000 0.0000 -1.0000
vn 0.0000 -1.0000 0.0000
vn 1.0000 0.0000 0.0000
vn 0.0000 -0.6214 -0.7835
vn -1.0000 0.0000 0.0000
vn 0.0000 0.6378 0.7702
vn 0.0000 0.0000 1.0000
vn 0.0000 -0.6214 0.7835
vn 0.0000 0.6378 -0.7702
usemtl Material
s off
f 41/53/23 43/54/23 44/55/23 42/56/23
f 45/57/24 46/58/24 48/59/24 47/60/24
f 43/54/25 41/53/25 45/57/25 47/60/25
f 44/55/26 43/54/26 47/60/26 48/59/26
f 42/56/27 44/55/27 48/59/27 46/58/27
f 41/53/28 42/56/28 46/58/28 45/57/28
f 49/61/29 50/62/29 52/63/29 51/64/29
f 53/65/24 55/66/24 56/67/24 54/68/24
f 51/64/25 55/66/25 53/65/25 49/61/25
f 52/63/30 56/67/30 55/66/30 51/64/30
f 50/62/27 54/68/27 56/67/27 52/63/27
f 49/61/31 53/65/31 54/68/31 50/62/31
o Cube.002
v -0.715920 3.592183 0.127638
v -0.715920 3.592183 -0.127638
v -0.715920 3.353812 0.127638
v -0.715920 3.353812 -0.127638
v -1.880363 2.186176 0.127638
v -1.880363 2.186176 -0.127638
v -1.641991 2.186176 0.127638
v -1.641991 2.186176 -0.127638
v 0.715920 3.592183 0.127638
v 0.715920 3.592183 -0.127638
v 0.715920 3.353812 0.127638
v 0.715920 3.353812 -0.127638
v 1.880363 2.186176 0.127638
v 1.880363 2.186176 -0.127638
v 1.641991 2.186176 0.127638
v 1.641991 2.186176 -0.127638
vt 0.778340 0.709942
vt 0.778340 0.709942
vt 0.819317 0.709942
vt 0.819317 0.709942
vt 0.778340 0.709942
vt 0.819317 0.709942
vt 0.819317 0.709942
vt 0.778340 0.709942
vt 0.778340 0.709942
vt 0.819317 0.709942
vt 0.819317 0.709942
vt 0.778340 0.709942
vt 0.778340 0.709942
vt 0.778340 0.709942
vt 0.819317 0.709942
vt 0.819317 0.709942
vn 1.0000 0.0000 0.0000
vn 0.0000 -1.0000 0.0000
vn 0.0000 -0.0000 1.0000
vn 0.7835 -0.6214 0.0000
vn -0.0000 0.0000 -1.0000
vn -0.7702 0.6378 0.0000
vn -1.0000 0.0000 0.0000
vn -0.7835 -0.6214 0.0000
vn 0.7702 0.6378 0.0000
usemtl Material
s off
f 57/69/32 59/70/32 60/71/32 58/72/32
f 61/73/33 62/74/33 64/75/33 63/76/33
f 59/70/34 57/69/34 61/73/34 63/76/34
f 60/71/35 59/70/35 63/76/35 64/75/35
f 58/72/36 60/71/36 64/75/36 62/74/36
f 57/69/37 58/72/37 62/74/37 61/73/37
f 65/77/38 66/78/38 68/79/38 67/80/38
f 69/81/33 71/82/33 72/83/33 70/84/33
f 67/80/34 71/82/34 69/81/34 65/77/34
f 68/79/39 72/83/39 71/82/39 67/80/39
f 66/78/36 70/84/36 72/83/36 68/79/36
f 65/77/40 69/81/40 70/84/40 66/78/40
