# Blender v3.0.0 OBJ File: 'Огненная башня 3 2.0.blend'
# www.blender.org
mtllib Огненная башня 3 3.0.mtl
o Cube
v 1.000000 1.440122 -1.000000
v 1.000000 0.000000 -1.000000
v 1.000000 1.440122 1.000000
v 1.000000 0.000000 1.000000
v -1.000000 1.440122 -1.000000
v -1.000000 0.000000 -1.000000
v -1.000000 1.440122 1.000000
v -1.000000 0.000000 1.000000
v 0.292609 4.747797 0.292609
v -0.292609 4.747797 0.292609
v 0.292609 4.747797 -0.292609
v -0.292609 4.747797 -0.292609
v 0.000736 5.650783 0.000736
v -0.000736 5.650783 0.000736
v 0.000736 5.650783 -0.000736
v -0.000736 5.650783 -0.000736
v 1.000000 1.524369 1.000000
v -1.000000 1.524369 1.000000
v 1.000000 1.524369 -1.000000
v -1.000000 1.524369 -1.000000
v 0.781482 2.995311 -0.781482
v 0.781482 1.524369 -0.781482
v 0.781482 2.995311 0.781482
v 0.781482 1.524369 0.781482
v -0.781482 2.995311 -0.781482
v -0.781482 1.524369 -0.781482
v -0.781482 2.995311 0.781482
v -0.781482 1.524369 0.781482
v 0.781482 3.081361 0.781482
v -0.781482 3.081361 0.781482
v 0.781482 3.081361 -0.781482
v -0.781482 3.081361 -0.781482
v 0.292609 4.747797 0.292609
v -0.292609 4.747797 0.292609
v 0.292609 4.747797 -0.292609
v -0.292609 4.747797 -0.292609
v 0.163268 4.261152 0.163268
v -0.163268 4.261152 0.163268
v 0.163268 4.261152 -0.163268
v -0.163268 4.261152 -0.163268
v 0.592159 4.195949 -0.592159
v 0.592159 3.081361 -0.592159
v 0.592159 4.195949 0.592159
v 0.592159 3.081361 0.592159
v -0.592159 4.195949 -0.592159
v -0.592159 3.081361 -0.592159
v -0.592159 4.195949 0.592159
v -0.592159 3.081361 0.592159
v 0.592159 4.261152 0.592159
v -0.592159 4.261152 0.592159
v 0.592159 4.261152 -0.592159
v -0.592159 4.261152 -0.592159
vt 0.791016 0.793699
vt 0.801511 0.793699
vt 0.801511 0.804195
vt 0.791016 0.804195
vt 0.791016 0.762212
vt 0.801511 0.762212
vt 0.801511 0.772707
vt 0.791016 0.772707
vt 0.780520 0.783203
vt 0.791016 0.783203
vt 0.780520 0.793699
vt 0.801511 0.783203
vt 0.454175 0.436597
vt 0.502856 0.436597
vt 0.502856 0.436597
vt 0.454175 0.436597
vt 0.502856 0.485278
vt 0.454175 0.485278
vt 0.454175 0.485278
vt 0.502856 0.485278
vt 0.774168 0.699219
vt 0.774168 0.688723
vt 0.774168 0.688723
vt 0.774168 0.699219
vt 0.791746 0.682864
vt 0.791746 0.714351
vt 0.791746 0.703855
vt 0.791746 0.693359
vt 0.774168 0.720210
vt 0.774168 0.709714
vt 0.774168 0.709714
vt 0.774168 0.720210
vt 0.774168 0.678227
vt 0.774168 0.678227
vt 0.785156 0.795652
vt 0.795652 0.795652
vt 0.795652 0.806148
vt 0.785156 0.806148
vt 0.785156 0.764165
vt 0.795652 0.764165
vt 0.795652 0.774661
vt 0.785156 0.774661
vt 0.785156 0.785156
vt 0.795652 0.785156
vt 0.797605 0.701172
vt 0.797605 0.690676
vt 0.797605 0.690676
vt 0.797605 0.701172
vt 0.780027 0.688723
vt 0.780027 0.720210
vt 0.780027 0.709714
vt 0.780027 0.699219
vt 0.797605 0.722163
vt 0.797605 0.711668
vt 0.797605 0.711668
vt 0.797605 0.722163
vt 0.797605 0.680181
vt 0.797605 0.680181
vt 0.785156 0.686770
vt 0.785156 0.697266
vt 0.785156 0.707761
vt 0.785156 0.718257
vt 0.502856 0.436597
vt 0.502856 0.485278
vt 0.454175 0.436597
vt 0.454175 0.436597
vt 0.502856 0.436597
vt 0.454175 0.485278
vt 0.454175 0.485278
vt 0.502856 0.485278
vt 0.785156 0.795652
vt 0.795652 0.795652
vt 0.795652 0.806148
vt 0.785156 0.806148
vt 0.785156 0.764165
vt 0.795652 0.764165
vt 0.795652 0.774661
vt 0.785156 0.774661
vt 0.785156 0.785156
vt 0.795652 0.785156
vt 0.797605 0.701172
vt 0.797605 0.690676
vt 0.797605 0.690676
vt 0.797605 0.701172
vt 0.780027 0.688723
vt 0.780027 0.720210
vt 0.780027 0.709714
vt 0.780027 0.699219
vt 0.797605 0.722163
vt 0.797605 0.711668
vt 0.797605 0.711668
vt 0.797605 0.722163
vt 0.797605 0.680181
vt 0.797605 0.680181
vn 0.0000 0.0000 1.0000
vn -1.0000 0.0000 0.0000
vn 0.0000 -1.0000 0.0000
vn 1.0000 0.0000 0.0000
vn 0.0000 0.0000 -1.0000
vn 0.0000 0.3076 -0.9515
vn 0.0000 1.0000 0.0000
vn 0.9515 0.3076 0.0000
vn -0.9515 0.3076 0.0000
vn 0.0000 0.3076 0.9515
vn 0.0000 -0.2569 -0.9664
vn 0.9664 -0.2569 0.0000
vn -0.9664 -0.2569 0.0000
vn 0.0000 -0.2569 0.9664
usemtl Material
s off
f 4/1/1 3/2/1 7/3/1 8/4/1
f 8/5/2 7/6/2 5/7/2 6/8/2
f 6/9/3 2/10/3 4/1/3 8/11/3
f 2/10/4 1/12/4 3/2/4 4/1/4
f 6/8/5 5/7/5 1/12/5 2/10/5
f 11/13/6 12/14/6 16/15/6 15/16/6
f 15/16/7 16/15/7 14/17/7 13/18/7
f 9/19/8 11/13/8 15/16/8 13/18/8
f 12/14/9 10/20/9 14/17/9 16/15/9
f 10/20/10 9/19/10 13/18/10 14/17/10
f 1/21/5 5/22/5 20/23/5 19/24/5
f 20/25/7 18/26/7 17/27/7 19/28/7
f 7/29/1 3/30/1 17/31/1 18/32/1
f 5/22/2 7/33/2 18/34/2 20/23/2
f 3/30/4 1/21/4 19/24/4 17/31/4
f 24/35/1 23/36/1 27/37/1 28/38/1
f 28/39/2 27/40/2 25/41/2 26/42/2
f 22/43/4 21/44/4 23/36/4 24/35/4
f 26/42/5 25/41/5 21/44/5 22/43/5
f 21/45/5 25/46/5 32/47/5 31/48/5
f 32/49/7 30/50/7 29/51/7 31/52/7
f 27/53/1 23/54/1 29/55/1 30/56/1
f 25/46/2 27/57/2 30/58/2 32/47/2
f 23/54/4 21/45/4 31/48/4 29/55/4
f 26/59/3 22/60/3 24/61/3 28/62/3
f 10/20/1 12/14/1 36/63/1 34/64/1
f 36/63/11 35/65/11 39/66/11 40/67/11
f 9/19/1 10/20/1 34/64/1 33/68/1
f 12/14/1 11/13/1 35/65/1 36/63/1
f 11/13/1 9/19/1 33/68/1 35/65/1
f 37/69/3 38/70/3 40/67/3 39/66/3
f 35/65/12 33/68/12 37/69/12 39/66/12
f 34/64/13 36/63/13 40/67/13 38/70/13
f 33/68/14 34/64/14 38/70/14 37/69/14
f 44/71/1 43/72/1 47/73/1 48/74/1
f 48/75/2 47/76/2 45/77/2 46/78/2
f 42/79/4 41/80/4 43/72/4 44/71/4
f 46/78/5 45/77/5 41/80/5 42/79/5
f 41/81/5 45/82/5 52/83/5 51/84/5
f 52/85/7 50/86/7 49/87/7 51/88/7
f 47/89/1 43/90/1 49/91/1 50/92/1
f 45/82/2 47/93/2 50/94/2 52/83/2
f 43/90/4 41/81/4 51/84/4 49/91/4
