# Blender v3.0.0 OBJ File: 'Огненная башня 1 2.0.blend'
# www.blender.org
mtllib Огненная башня 1 3.0.mtl
o Cube
v 1.000000 1.440122 -1.000000
v 1.000000 0.000000 -1.000000
v 1.000000 1.440122 1.000000
v 1.000000 0.000000 1.000000
v -1.000000 1.440122 -1.000000
v -1.000000 0.000000 -1.000000
v -1.000000 1.440122 1.000000
v -1.000000 0.000000 1.000000
v 0.292609 3.081361 0.292609
v -0.292609 3.081361 0.292609
v 0.292609 3.081361 -0.292609
v -0.292609 3.081361 -0.292609
v 0.000736 3.984346 0.000736
v -0.000736 3.984346 0.000736
v 0.000736 3.984346 -0.000736
v -0.000736 3.984346 -0.000736
v 1.000000 1.524369 1.000000
v -1.000000 1.524369 1.000000
v 1.000000 1.524369 -1.000000
v -1.000000 1.524369 -1.000000
v 0.781482 2.995311 -0.781482
v 0.781482 1.524369 -0.781482
v 0.781482 2.995311 0.781482
v 0.781482 1.524369 0.781482
v -0.781482 2.995311 -0.781482
v -0.781482 1.524369 -0.781482
v -0.781482 2.995311 0.781482
v -0.781482 1.524369 0.781482
v 0.781482 3.081361 0.781482
v -0.781482 3.081361 0.781482
v 0.781482 3.081361 -0.781482
v -0.781482 3.081361 -0.781482
vt 0.785156 0.707761
vt 0.795652 0.707761
vt 0.795652 0.718257
vt 0.785156 0.718257
vt 0.785156 0.676274
vt 0.795652 0.676274
vt 0.795652 0.686770
vt 0.785156 0.686770
vt 0.774661 0.697266
vt 0.785156 0.697266
vt 0.774661 0.707761
vt 0.795652 0.697266
vt 0.454175 0.436597
vt 0.502856 0.436597
vt 0.502856 0.436597
vt 0.454175 0.436597
vt 0.502856 0.485278
vt 0.454175 0.485278
vt 0.454175 0.485278
vt 0.502856 0.485278
vt 0.774168 0.628906
vt 0.774168 0.618411
vt 0.774168 0.618411
vt 0.774168 0.628906
vt 0.791746 0.612551
vt 0.791746 0.644038
vt 0.791746 0.633543
vt 0.791746 0.623047
vt 0.774168 0.649898
vt 0.774168 0.639402
vt 0.774168 0.639402
vt 0.774168 0.649898
vt 0.774168 0.607915
vt 0.774168 0.607915
vt 0.785156 0.707761
vt 0.795652 0.707761
vt 0.795652 0.718257
vt 0.785156 0.718257
vt 0.785156 0.676274
vt 0.795652 0.676274
vt 0.795652 0.686770
vt 0.785156 0.686770
vt 0.785156 0.697266
vt 0.795652 0.697266
vt 0.797605 0.619141
vt 0.797605 0.608645
vt 0.797605 0.608645
vt 0.797605 0.619141
vt 0.780027 0.606692
vt 0.780027 0.638179
vt 0.780027 0.627683
vt 0.780027 0.617188
vt 0.797605 0.640132
vt 0.797605 0.629636
vt 0.797605 0.629636
vt 0.797605 0.640132
vt 0.797605 0.598149
vt 0.797605 0.598149
vn 0.0000 0.0000 1.0000
vn -1.0000 0.0000 0.0000
vn 0.0000 -1.0000 0.0000
vn 1.0000 0.0000 0.0000
vn 0.0000 0.0000 -1.0000
vn 0.0000 0.3076 -0.9515
vn 0.0000 1.0000 0.0000
vn 0.9515 0.3076 0.0000
vn -0.9515 0.3076 0.0000
vn 0.0000 0.3076 0.9515
usemtl Material
s off
f 4/1/1 3/2/1 7/3/1 8/4/1
f 8/5/2 7/6/2 5/7/2 6/8/2
f 6/9/3 2/10/3 4/1/3 8/11/3
f 2/10/4 1/12/4 3/2/4 4/1/4
f 6/8/5 5/7/5 1/12/5 2/10/5
f 11/13/6 12/14/6 16/15/6 15/16/6
f 15/16/7 16/15/7 14/17/7 13/18/7
f 9/19/8 11/13/8 15/16/8 13/18/8
f 12/14/9 10/20/9 14/17/9 16/15/9
f 10/20/10 9/19/10 13/18/10 14/17/10
f 1/21/5 5/22/5 20/23/5 19/24/5
f 20/25/7 18/26/7 17/27/7 19/28/7
f 7/29/1 3/30/1 17/31/1 18/32/1
f 5/22/2 7/33/2 18/34/2 20/23/2
f 3/30/4 1/21/4 19/24/4 17/31/4
f 24/35/1 23/36/1 27/37/1 28/38/1
f 28/39/2 27/40/2 25/41/2 26/42/2
f 22/43/4 21/44/4 23/36/4 24/35/4
f 26/42/5 25/41/5 21/44/5 22/43/5
f 21/45/5 25/46/5 32/47/5 31/48/5
f 32/49/7 30/50/7 29/51/7 31/52/7
f 27/53/1 23/54/1 29/55/1 30/56/1
f 25/46/2 27/57/2 30/58/2 32/47/2
f 23/54/4 21/45/4 31/48/4 29/55/4
f 26/42/3 22/43/3 24/35/3 28/38/3
