# Blender v3.0.0 OBJ File: 'Турель 1 Экспорт.blend'
# www.blender.org
mtllib Турель 1 Подставка.mtl
o Плоскость.001
v -0.058552 2.000199 0.058552
v 0.058552 2.000199 0.058552
v -0.058552 2.563790 0.058552
v 0.058552 2.563790 0.058552
v 0.058552 2.563790 0.000000
v -0.058552 2.563790 0.000000
v -0.058552 2.000199 -0.058552
v 0.058552 2.000199 -0.058552
v -0.058552 2.563790 -0.058552
v 0.058552 2.563790 -0.058552
v 0.291248 2.000199 0.291248
v 0.000000 2.000199 0.411670
v 0.417404 2.000199 0.000000
v 0.000000 2.000199 0.000000
v 0.417404 2.049384 0.000000
v 0.291248 2.049384 0.291248
v 0.000000 2.049384 0.411670
v 0.000000 2.049384 0.000000
v -0.291248 2.000199 0.291248
v -0.417404 2.000199 0.000000
v -0.417404 2.049384 0.000000
v -0.291248 2.049384 0.291248
v 0.291248 2.000199 -0.291248
v 0.000000 2.000199 -0.411670
v 0.291248 2.049384 -0.291248
v 0.000000 2.049384 -0.411670
v -0.291248 2.000199 -0.291248
v -0.291248 2.049384 -0.291248
vt 0.727601 0.453582
vt 0.727601 0.453582
vt 0.727601 0.468293
vt 0.727601 0.453582
vt 0.727601 0.453582
vt 0.698180 0.453582
vt 0.698180 0.453582
vt 0.698180 0.468293
vt 0.698180 0.453582
vt 0.698180 0.453582
vt 0.625000 0.625000
vt 0.625000 0.625000
vt 0.625000 0.625000
vt 0.625000 0.625000
vt 0.625000 0.625000
vt 0.625000 0.625000
vt 0.625000 0.625000
vt 0.625000 0.625000
vt 0.625000 0.625000
vt 0.625000 0.625000
vt 0.625000 0.625000
vt 0.625000 0.625000
vt 0.625000 0.625000
vt 0.625000 0.625000
vt 0.625000 0.625000
vt 0.625000 0.625000
vt 0.625000 0.625000
vt 0.625000 0.625000
vn 1.0000 0.0000 0.0000
vn 0.0000 0.0000 1.0000
vn 0.0000 1.0000 0.0000
vn -1.0000 0.0000 0.0000
vn 0.0000 0.0000 -1.0000
vn 0.0000 -1.0000 0.0000
vn 0.9176 0.0000 0.3975
vn 0.3821 0.0000 0.9241
vn -0.9176 0.0000 0.3975
vn -0.3821 0.0000 0.9241
vn 0.9176 0.0000 -0.3975
vn 0.3821 0.0000 -0.9241
vn -0.9176 0.0000 -0.3975
vn -0.3821 0.0000 -0.9241
usemtl Материал
s off
f 8/1/1 10/2/1 5/3/1 4/4/1 2/5/1
f 1/6/2 2/5/2 4/4/2 3/7/2
f 3/7/3 4/4/3 5/3/3 6/8/3
f 6/8/4 9/9/4 7/10/4 1/6/4 3/7/4
f 7/10/5 9/9/5 10/2/5 8/1/5
f 9/9/3 6/8/3 5/3/3 10/2/3
usemtl Material
f 13/11/6 11/12/6 12/13/6 14/14/6
f 15/15/3 18/16/3 17/17/3 16/18/3
f 14/14/4 12/13/4 17/17/4 18/16/4
f 11/12/7 13/11/7 15/15/7 16/18/7
f 13/11/5 14/14/5 18/16/5 15/15/5
f 12/13/8 11/12/8 16/18/8 17/17/8
f 20/19/6 14/14/6 12/13/6 19/20/6
f 21/21/3 22/22/3 17/17/3 18/16/3
f 19/20/9 22/22/9 21/21/9 20/19/9
f 20/19/5 21/21/5 18/16/5 14/14/5
f 12/13/10 17/17/10 22/22/10 19/20/10
f 13/11/6 14/14/6 24/23/6 23/24/6
f 15/15/3 25/25/3 26/26/3 18/16/3
f 14/14/4 18/16/4 26/26/4 24/23/4
f 23/24/11 25/25/11 15/15/11 13/11/11
f 24/23/12 26/26/12 25/25/12 23/24/12
f 20/19/6 27/27/6 24/23/6 14/14/6
f 21/21/3 18/16/3 26/26/3 28/28/3
f 27/27/13 20/19/13 21/21/13 28/28/13
f 24/23/14 27/27/14 28/28/14 26/26/14
