# Blender v3.0.0 OBJ File: 'Ядро.blend'
# www.blender.org
mtllib Ядро.mtl
o Сфера
v 0.000000 0.923880 -0.382683
v 0.000000 0.707107 -0.707107
v 0.000000 0.382683 -0.923880
v 0.000000 -0.000000 -1.000000
v 0.000000 -0.382683 -0.923880
v 0.000000 -0.707107 -0.707107
v 0.000000 -0.923880 -0.382683
v 0.270598 0.923880 -0.270598
v 0.500000 0.707107 -0.500000
v 0.653282 0.382683 -0.653281
v 0.707107 -0.000000 -0.707107
v 0.653282 -0.382683 -0.653282
v 0.500000 -0.707107 -0.500000
v 0.270598 -0.923880 -0.270598
v 0.382684 0.923880 0.000000
v 0.707107 0.707107 0.000000
v 0.923880 0.382683 0.000000
v 1.000000 -0.000000 0.000000
v 0.923880 -0.382683 0.000000
v 0.707107 -0.707107 0.000000
v 0.382684 -0.923880 0.000000
v 0.270598 0.923880 0.270598
v 0.500000 0.707107 0.500000
v 0.653282 0.382683 0.653282
v 0.707107 -0.000000 0.707107
v 0.653282 -0.382683 0.653282
v 0.500000 -0.707107 0.500000
v 0.270598 -0.923880 0.270598
v 0.000000 0.923880 0.382684
v 0.000000 0.707107 0.707107
v 0.000000 0.382683 0.923880
v 0.000000 -0.000000 1.000000
v 0.000000 -0.382683 0.923880
v 0.000000 -0.707107 0.707107
v 0.000000 -0.923880 0.382684
v -0.000000 1.000000 0.000000
v -0.270598 0.923880 0.270598
v -0.500000 0.707107 0.500000
v -0.653281 0.382683 0.653282
v -0.707107 -0.000000 0.707107
v -0.653282 -0.382683 0.653282
v -0.500000 -0.707107 0.500000
v -0.270598 -0.923880 0.270598
v -0.382684 0.923880 0.000000
v -0.707107 0.707107 0.000000
v -0.923879 0.382683 0.000000
v -1.000000 -0.000000 0.000000
v -0.923880 -0.382683 0.000000
v -0.707107 -0.707107 0.000000
v -0.382684 -0.923880 0.000000
v 0.000000 -1.000000 0.000000
v -0.270598 0.923880 -0.270598
v -0.500000 0.707107 -0.500000
v -0.653281 0.382683 -0.653281
v -0.707107 -0.000000 -0.707107
v -0.653282 -0.382683 -0.653281
v -0.500000 -0.707107 -0.500000
v -0.270598 -0.923880 -0.270598
vt 0.804689 0.720704
vt 0.804689 0.726564
vt 0.798829 0.726564
vt 0.798829 0.720704
vt 0.804689 0.691405
vt 0.804689 0.697264
vt 0.798829 0.697264
vt 0.798829 0.691405
vt 0.804689 0.703124
vt 0.804689 0.708984
vt 0.798829 0.708984
vt 0.798829 0.703124
vt 0.804689 0.714844
vt 0.798829 0.714844
vt 0.801759 0.732424
vt 0.801759 0.685545
vt 0.792969 0.708984
vt 0.792969 0.703124
vt 0.792969 0.720704
vt 0.792969 0.714844
vt 0.795899 0.732424
vt 0.792969 0.726564
vt 0.795899 0.685545
vt 0.792969 0.691405
vt 0.792969 0.697264
vt 0.790039 0.685545
vt 0.787109 0.691405
vt 0.787109 0.703124
vt 0.787109 0.697264
vt 0.787109 0.714844
vt 0.787109 0.708984
vt 0.787109 0.726564
vt 0.787109 0.720704
vt 0.790039 0.732424
vt 0.781249 0.714844
vt 0.781249 0.708984
vt 0.781249 0.726564
vt 0.781249 0.720704
vt 0.781249 0.697264
vt 0.781249 0.691405
vt 0.781249 0.703124
vt 0.784179 0.732424
vt 0.784179 0.685545
vt 0.775389 0.697264
vt 0.775389 0.691405
vt 0.775389 0.708984
vt 0.775389 0.703124
vt 0.775389 0.720704
vt 0.775389 0.714844
vt 0.778319 0.732424
vt 0.775389 0.726564
vt 0.778319 0.685545
vt 0.769529 0.720704
vt 0.769529 0.714844
vt 0.772459 0.732424
vt 0.769529 0.726564
vt 0.772459 0.685545
vt 0.769529 0.691405
vt 0.769529 0.703124
vt 0.769529 0.697264
vt 0.769529 0.708984
vt 0.813479 0.685545
vt 0.816409 0.691405
vt 0.810549 0.691405
vt 0.816409 0.697264
vt 0.816409 0.703124
vt 0.810549 0.703124
vt 0.810549 0.697264
vt 0.816409 0.708984
vt 0.816409 0.714844
vt 0.810549 0.714844
vt 0.810549 0.708984
vt 0.816409 0.720704
vt 0.816409 0.726564
vt 0.810549 0.726564
vt 0.810549 0.720704
vt 0.813479 0.732424
vt 0.807619 0.732424
vt 0.807619 0.685545
vn 0.2243 0.8103 -0.5414
vn 0.2243 -0.8103 -0.5414
vn 0.3764 -0.1807 -0.9087
vn 0.3256 0.5253 -0.7862
vn 0.0805 0.9776 -0.1945
vn 0.0805 -0.9776 -0.1945
vn 0.3256 -0.5253 -0.7862
vn 0.3764 0.1807 -0.9087
vn 0.9087 -0.1807 -0.3764
vn 0.7862 0.5253 -0.3256
vn 0.1945 0.9776 -0.0805
vn 0.1945 -0.9776 -0.0805
vn 0.7862 -0.5253 -0.3256
vn 0.9087 0.1807 -0.3764
vn 0.5414 0.8103 -0.2243
vn 0.5414 -0.8103 -0.2243
vn 0.1945 -0.9776 0.0805
vn 0.7862 -0.5253 0.3256
vn 0.9087 0.1807 0.3764
vn 0.5414 0.8103 0.2243
vn 0.5414 -0.8103 0.2243
vn 0.9087 -0.1807 0.3764
vn 0.7862 0.5253 0.3256
vn 0.1945 0.9776 0.0805
vn 0.3764 0.1807 0.9087
vn 0.2243 0.8103 0.5414
vn 0.2243 -0.8103 0.5414
vn 0.3764 -0.1807 0.9087
vn 0.3256 0.5253 0.7862
vn 0.0805 0.9776 0.1945
vn 0.0805 -0.9776 0.1945
vn 0.3256 -0.5253 0.7862
vn -0.2243 -0.8103 0.5414
vn -0.3764 -0.1807 0.9087
vn -0.3256 0.5253 0.7862
vn -0.0805 0.9776 0.1945
vn -0.0805 -0.9776 0.1945
vn -0.3256 -0.5253 0.7862
vn -0.3764 0.1807 0.9087
vn -0.2243 0.8103 0.5414
vn -0.7862 0.5253 0.3256
vn -0.1945 0.9776 0.0805
vn -0.1945 -0.9776 0.0805
vn -0.7862 -0.5253 0.3256
vn -0.9087 0.1807 0.3764
vn -0.5414 0.8103 0.2243
vn -0.5414 -0.8103 0.2243
vn -0.9087 -0.1807 0.3764
vn -0.1945 -0.9776 -0.0805
vn -0.7862 -0.5253 -0.3256
vn -0.9087 0.1807 -0.3764
vn -0.5414 0.8103 -0.2243
vn -0.5414 -0.8103 -0.2243
vn -0.9087 -0.1807 -0.3764
vn -0.7862 0.5253 -0.3256
vn -0.1945 0.9776 -0.0805
vn -0.2243 0.8103 -0.5414
vn -0.2243 -0.8103 -0.5414
vn -0.3764 -0.1807 -0.9087
vn -0.3256 0.5253 -0.7862
vn -0.0805 0.9776 -0.1945
vn -0.0805 -0.9776 -0.1945
vn -0.3256 -0.5253 -0.7862
vn -0.3764 0.1807 -0.9087
usemtl Материал
s off
f 2/1/1 1/2/1 8/3/1 9/4/1
f 7/5/2 6/6/2 13/7/2 14/8/2
f 5/9/3 4/10/3 11/11/3 12/12/3
f 3/13/4 2/1/4 9/4/4 10/14/4
f 1/2/5 36/15/5 8/3/5
f 51/16/6 7/5/6 14/8/6
f 6/6/7 5/9/7 12/12/7 13/7/7
f 4/10/8 3/13/8 10/14/8 11/11/8
f 12/12/9 11/11/9 18/17/9 19/18/9
f 10/14/10 9/4/10 16/19/10 17/20/10
f 8/3/11 36/21/11 15/22/11
f 51/23/12 14/8/12 21/24/12
f 13/7/13 12/12/13 19/18/13 20/25/13
f 11/11/14 10/14/14 17/20/14 18/17/14
f 9/4/15 8/3/15 15/22/15 16/19/15
f 14/8/16 13/7/16 20/25/16 21/24/16
f 51/26/17 21/24/17 28/27/17
f 20/25/18 19/18/18 26/28/18 27/29/18
f 18/17/19 17/20/19 24/30/19 25/31/19
f 16/19/20 15/22/20 22/32/20 23/33/20
f 21/24/21 20/25/21 27/29/21 28/27/21
f 19/18/22 18/17/22 25/31/22 26/28/22
f 17/20/23 16/19/23 23/33/23 24/30/23
f 15/22/24 36/34/24 22/32/24
f 25/31/25 24/30/25 31/35/25 32/36/25
f 23/33/26 22/32/26 29/37/26 30/38/26
f 28/27/27 27/29/27 34/39/27 35/40/27
f 26/28/28 25/31/28 32/36/28 33/41/28
f 24/30/29 23/33/29 30/38/29 31/35/29
f 22/32/30 36/42/30 29/37/30
f 51/43/31 28/27/31 35/40/31
f 27/29/32 26/28/32 33/41/32 34/39/32
f 35/40/33 34/39/33 42/44/33 43/45/33
f 33/41/34 32/36/34 40/46/34 41/47/34
f 31/35/35 30/38/35 38/48/35 39/49/35
f 29/37/36 36/50/36 37/51/36
f 51/52/37 35/40/37 43/45/37
f 34/39/38 33/41/38 41/47/38 42/44/38
f 32/36/39 31/35/39 39/49/39 40/46/39
f 30/38/40 29/37/40 37/51/40 38/48/40
f 39/49/41 38/48/41 45/53/41 46/54/41
f 37/51/42 36/55/42 44/56/42
f 51/57/43 43/45/43 50/58/43
f 42/44/44 41/47/44 48/59/44 49/60/44
f 40/46/45 39/49/45 46/54/45 47/61/45
f 38/48/46 37/51/46 44/56/46 45/53/46
f 43/45/47 42/44/47 49/60/47 50/58/47
f 41/47/48 40/46/48 47/61/48 48/59/48
f 51/62/49 50/63/49 58/64/49
f 49/65/50 48/66/50 56/67/50 57/68/50
f 47/69/51 46/70/51 54/71/51 55/72/51
f 45/73/52 44/74/52 52/75/52 53/76/52
f 50/63/53 49/65/53 57/68/53 58/64/53
f 48/66/54 47/69/54 55/72/54 56/67/54
f 46/70/55 45/73/55 53/76/55 54/71/55
f 44/74/56 36/77/56 52/75/56
f 53/76/57 52/75/57 1/2/57 2/1/57
f 58/64/58 57/68/58 6/6/58 7/5/58
f 56/67/59 55/72/59 4/10/59 5/9/59
f 54/71/60 53/76/60 2/1/60 3/13/60
f 52/75/61 36/78/61 1/2/61
f 51/79/62 58/64/62 7/5/62
f 57/68/63 56/67/63 5/9/63 6/6/63
f 55/72/64 54/71/64 3/13/64 4/10/64
